<?xml version="1.0" encoding="utf-8"?>
<!-- Generator: Adobe Illustrator 21.0.0, SVG Export Plug-In . SVG Version: 6.00 Build 0)  -->
<svg version="1.1" id="Layer_1" xmlns="http://www.w3.org/2000/svg" xmlns:xlink="http://www.w3.org/1999/xlink" x="0px" y="0px"
	 viewBox="0 0 68.8 31.5" style="enable-background:new 0 0 68.8 31.5;" xml:space="preserve">
<style type="text/css">
	.st0{fill:#5AC3F0;}
	.st1{fill:none;}
</style>
<g>
	<path class="st0" d="M5,9.9c0-0.6,0.5-1,1-1s1,0.5,1,1s-0.5,1-1,1S5,10.5,5,9.9z M7.1,13v6.3c0,0.6-0.5,1-1,1s-1-0.5-1-1V13
		c0-0.6,0.5-1,1-1S7.1,12.5,7.1,13z"/>
	<path class="st0" d="M15.8,19.5C15.8,19.5,15.8,19.6,15.8,19.5L15.8,19.5c-0.1,0.6-0.5,1-1,1c-0.6,0-1-0.4-1-1h0v-3.8
		c0-0.2,0-0.3-0.1-0.5c-0.6-1.8-3.4-1.4-3.4,0.5v3.7v0c0,0.6-0.5,1-1,1c-0.6,0-1-0.5-1-1v0v-3.7v-2.7c0-0.6,0.5-1,1-1
		c0.4,0,0.7,0.2,0.9,0.5c2.5-1.4,5.7,0.4,5.7,3.2v0.1V19.5L15.8,19.5z"/>
	<path class="st0" d="M24.8,20.5c-0.3,1.4-1.3,2.5-2.8,2.9h0c-1.4,0.3-3.5,0.1-4.8-0.9c-0.3-0.2-0.4-0.5-0.4-0.8c0-0.6,0.5-1,1-1
		c0.2,0,0.3,0,0.4,0.1c0.1,0,0.2,0.1,0.2,0.1c0.2,0.1,0.5,0.3,1,0.5c0.7,0.2,1.6,0.2,2.1,0.1c0.8-0.2,1.3-0.8,1.4-1.6
		c0-0.1,0-0.1,0-0.1v-0.2c-2.1,1.2-4.9,0.4-6-1.8c-1.2-2.5,0.8-5.4,3.8-5.4c0.8,0,1.6,0.2,2.2,0.6c0.2-0.3,0.5-0.6,0.9-0.6
		c0.6,0,1,0.5,1,1v0.2c0,0.2,0,0.4,0,0.7v1.7c0,0.1,0,0.1,0,0.2c0,0.1,0,0.1,0,0.2C24.9,20,25,19.9,24.8,20.5z M22.8,16
		c-0.1-0.7-0.6-1.3-1.3-1.5c-1.9-0.7-3.8,1.1-2.6,2.6c0.4,0.5,1,0.8,1.8,0.8c1.1,0,2-0.8,2.1-1.7V16z"/>
	<path class="st0" d="M32,13.3c0,0.1,0,0.2,0,0.3l0,0c0,0,0,0,0,0.1c0,0,0,0,0,0l0,0.1c0,0,0,0,0,0c0,0,0,0,0,0
		c-0.1,0.3-0.4,0.4-0.7,0.5c-0.1,0-0.1,0-0.2,0h-1.4v5c0,0.6-0.5,1-1,1s-1-0.5-1-1v-5h-0.6c-0.6,0-1-0.5-1-1c0-0.6,0.5-1,1-1h0.6
		v-0.5c0-0.3,0-1.4,0.8-2.3c0.7-0.6,1.6-0.9,2.8-0.7h0c0,0,0,0,0,0c0.5,0.1,0.9,0.5,0.9,1c0,0.6-0.5,1-1,1c-0.1,0-0.1,0-0.1,0h0
		c-0.5-0.1-0.9,0-1.2,0.2c-0.2,0.2-0.2,0.7-0.2,0.7v0.6h1.4C31.5,12.3,32,12.8,32,13.3z"/>
	<path class="st0" d="M40.8,16.3c0,2.4-2,4.4-4.4,4.4c-2.4,0-4.4-2-4.4-4.4c0-0.5,0.1-0.9,0.2-1.3c0.1-0.4,0.3-0.8,0.6-1.1
		c0.5-0.7,1.2-1.2,1.9-1.6c0.5-0.2,1.1-0.3,1.7-0.3c0.5,0,0.9,0.1,1.3,0.2c0.4,0.1,0.8,0.3,1.2,0.5c0.7,0.5,1.3,1.1,1.6,1.9
		C40.7,15.1,40.8,15.7,40.8,16.3z M38.8,16.3c0-0.2,0-0.5-0.1-0.7c-0.1-0.2-0.2-0.4-0.3-0.6c-0.2-0.4-0.6-0.7-1-0.8
		c-0.3-0.1-0.6-0.2-0.9-0.2c-0.2,0-0.5,0-0.7,0.1c-0.2,0.1-0.4,0.2-0.6,0.3c-0.4,0.3-0.7,0.6-0.8,1c-0.1,0.3-0.2,0.6-0.2,0.9
		c0,1.3,1,2.3,2.3,2.3C37.7,18.6,38.8,17.5,38.8,16.3z"/>
	<path class="st0" d="M49.2,19.3c0,0.6-0.5,1-1,1c-0.3,0-0.6-0.1-0.8-0.3l-2.8-3l-0.8,0.7v1.6v0c0,0.6-0.5,1-1,1s-1-0.5-1-1v0V9.9
		c0-0.6,0.5-1,1-1s1,0.5,1,1v5.1l0.2-0.2c0,0,0,0,0,0h0c0,0,0,0,0,0l3-2.6c0.2-0.2,0.4-0.3,0.7-0.3c0.6,0,1,0.5,1,1
		c0,0.3-0.1,0.6-0.3,0.8l-2.2,1.9l2.7,3h0C49.1,18.8,49.2,19.1,49.2,19.3z"/>
	<path class="st0" d="M58.1,16.3c0,2.4-2,4.4-4.4,4.4c-2.4,0-4.4-2-4.4-4.4c0-0.5,0.1-0.9,0.2-1.3c0.1-0.4,0.3-0.8,0.6-1.1
		c0.5-0.7,1.2-1.2,1.9-1.6c0.5-0.2,1.1-0.3,1.7-0.3c0.5,0,0.9,0.1,1.3,0.2c0.4,0.1,0.8,0.3,1.2,0.5c0.7,0.5,1.3,1.1,1.6,1.9
		C57.9,15.1,58.1,15.7,58.1,16.3z M56,16.3c0-0.2,0-0.5-0.1-0.7c-0.1-0.2-0.2-0.4-0.3-0.6c-0.2-0.4-0.6-0.7-1-0.8
		C54.3,14.1,54,14,53.6,14c-0.2,0-0.5,0-0.7,0.1c-0.2,0.1-0.4,0.2-0.6,0.3c-0.4,0.3-0.7,0.6-0.8,1c-0.1,0.3-0.2,0.6-0.2,0.9
		c0,1.3,1,2.3,2.3,2.3C54.9,18.6,56,17.5,56,16.3z"/>
	<path class="st0" d="M65.2,17.8c0,1.5-1.1,2.6-3.1,2.6c-1.1,0-2-0.3-2.9-0.9c-0.3-0.2-0.6-0.5-0.6-0.9c0-0.6,0.5-1,1-1
		c0.2,0,0.4,0.1,0.6,0.2h0c0.6,0.4,1.1,0.6,1.9,0.6c0.5,0,1-0.1,1-0.6c0-0.1,0-0.1,0-0.1c-0.1-0.3-1.2-0.6-1.5-0.6
		c-1.5-0.3-2.8-1.1-2.8-2.6v0v0c0-2.3,2.3-3.1,4.5-2.4c0.3,0.1,0.7,0.3,1,0.4c0.3,0.2,0.6,0.5,0.6,0.9c0,0.6-0.5,1-1,1h0
		c0,0-0.1,0-0.1,0c-0.1,0-0.3,0-0.4-0.1c-0.4-0.2-0.8-0.5-1.6-0.5c-0.8,0-0.9,0.3-0.9,0.6c0,0,0,0.1,0,0.1c0.1,0.2,0.4,0.3,0.6,0.4
		C62.2,15.1,65.2,15.4,65.2,17.8z"/>
</g>
<g>
	<path class="st0" d="M58.4,21.5L57,19.6c-0.5,0.5-1.1,0.9-1.8,1.1l1.6,2c0.4,0.5,1,0.5,1.5,0.2C58.7,22.6,58.7,21.9,58.4,21.5z"/>
</g>
<rect y="4" class="st1" width="68.8" height="24.2"/>
</svg>
